<?xml version="1.0" standalone="no"?>
<!DOCTYPE svg PUBLIC "-//W3C//DTD SVG 20010904//EN"
 "http://www.w3.org/TR/2001/REC-SVG-20010904/DTD/svg10.dtd">
<svg version="1.0" xmlns="http://www.w3.org/2000/svg"
 width="200.000000pt" height="200.000000pt" viewBox="0 0 200.000000 200.000000"
 preserveAspectRatio="xMidYMid meet">
<metadata>
Created by potrace 1.16, written by Peter Selinger 2001-2019
</metadata>
<g transform="translate(0.000000,200.000000) scale(0.100000,-0.100000)"
fill="#000000" stroke="none">
<path d="M0 1000 l0 -1000 1000 0 1000 0 0 1000 0 1000 -1000 0 -1000 0 0
-1000z m1253 148 c13 -7 17 -16 13 -31 -3 -12 -6 -28 -6 -34 0 -20 -34 -15
-48 7 -15 24 -64 27 -82 5 -17 -21 -6 -32 65 -66 66 -31 79 -48 77 -103 -2
-57 -78 -104 -150 -91 -71 12 -72 13 -72 61 0 40 2 44 25 44 18 0 25 -5 25
-19 0 -30 63 -44 88 -19 25 25 13 45 -43 68 -84 34 -114 85 -84 143 13 23 31
38 64 49 24 8 103 0 128 -14z m-813 -60 c36 -82 39 -82 82 17 l23 55 58 0 c48
0 57 -3 57 -18 0 -9 -9 -23 -20 -30 -18 -11 -20 -23 -20 -116 0 -96 2 -105 20
-111 11 -3 20 -15 20 -26 0 -17 -7 -19 -70 -19 -63 0 -70 2 -70 19 0 11 9 23
20 26 18 6 20 15 20 86 0 43 -2 79 -4 79 -3 0 -17 -27 -31 -59 -20 -44 -33
-61 -52 -66 -30 -7 -24 -13 -61 60 l-31 60 -1 -77 c0 -68 2 -77 20 -83 11 -3
20 -15 20 -26 0 -17 -7 -19 -65 -19 -57 0 -65 2 -65 19 0 10 7 21 15 25 12 4
15 27 15 115 0 87 -3 110 -15 115 -8 3 -15 15 -15 26 0 18 6 20 59 20 l58 0
33 -72z m390 52 c0 -10 -7 -23 -15 -27 -12 -7 -10 -22 14 -97 l27 -89 29 88
c27 81 28 88 12 100 -9 7 -17 20 -17 29 0 13 12 16 70 16 60 0 70 -2 70 -18 0
-9 -8 -22 -18 -29 -11 -6 -38 -66 -66 -142 l-48 -131 -36 0 -37 0 -44 128
c-24 70 -52 134 -62 144 -11 9 -19 23 -19 32 0 13 13 16 70 16 63 0 70 -2 70
-20z m750 -30 c0 -42 -3 -50 -19 -50 -12 0 -21 9 -25 25 -4 16 -13 25 -26 25
-19 0 -20 -7 -20 -110 0 -99 2 -110 20 -120 11 -6 20 -17 20 -25 0 -12 -16
-15 -75 -15 -67 0 -75 2 -75 19 0 11 9 23 20 26 19 6 20 13 18 113 -3 100 -4
107 -24 110 -16 2 -23 -4 -28 -22 -4 -17 -13 -26 -26 -26 -17 0 -20 7 -20 50
l0 50 130 0 130 0 0 -50z"/>
</g>
</svg>
